<?xml version="1.0" encoding="utf-8"?>
<!-- Generator: Adobe Illustrator 16.0.0, SVG Export Plug-In . SVG Version: 6.00 Build 0)  -->
<!DOCTYPE svg PUBLIC "-//W3C//DTD SVG 1.1//EN" "http://www.w3.org/Graphics/SVG/1.1/DTD/svg11.dtd">
<svg version="1.1" xmlns="http://www.w3.org/2000/svg" xmlns:xlink="http://www.w3.org/1999/xlink" x="0px" y="0px" width="226.5px"
	 height="253px" viewBox="0 0 226.5 253" enable-background="new 0 0 226.5 253" xml:space="preserve">
<g id="Calque_2">
</g>
<g id="Calque_3">
	<path fill="none" d="M148.769,143.561c1.382-0.946,2.487-2.136,3.454-3.425c5.473-7.295,7.594-15.713,7.541-24.705
		c-0.005-0.855-0.005-1.819-0.104-2.749c-0.58,0.647-1.08,1.372-1.486,2.067C153.134,123.372,149.667,132.808,148.769,143.561z"/>
	<path fill="#27FFFF" d="M73.389,66.374c2.091,11.923,1.791,23.855-2.531,35.382c-1.175,3.133-3.188,4.549-6.041,4.944
		c-1.818,4.204-1.648,4.641,2.024,5.3c4.875,0.875,8.224,0.136,10.25-4.082c5.33-11.097,6.69-22.955,5.667-35.017
		c-0.646-7.628-4.308-13.969-11.247-17.847c-1.699-0.95-3.489-1.579-5.331-1.928C70.064,56.486,72.454,61.039,73.389,66.374z"/>
	<path fill="#27FFFF" d="M57.144,234.643c-0.915-15.621-0.747-31.227-0.069-46.845c0.052-1.213,0.565-9.167-1.176-4.298
		c-3.427,7.036-6.738,13.694-10.901,19.818c3.539-4.785,6.683-9.93,9.924-15.311c2.168-4.695,0.949,3.182,0.791,4.387
		c-2.064,15.496-3.618,31.022-4.096,46.664c-0.206,6.764,2.218,9.846,9.097,10.159c3.062,0.14,6.763,0.615,6.503-1.03
		c-0.129-0.815-0.16-2.288-0.112-4.234C60.227,244.251,57.54,241.396,57.144,234.643z"/>
	<path fill="#27FFFF" d="M73.268,179.389c-0.031,0.668-0.055,1.336-0.084,2.004c2.23-14.908,5.464-29.618,8.627-44.345
		c0.816-3.8-0.26-6.474-3.58-7.821c-0.011,0.363-0.034,0.735-0.082,1.125C76.141,146.659,74.03,162.95,73.268,179.389z"/>
	<path fill="#27FFFF" d="M48.12,62.292c-5.712,5.635-9.109,12.73-11.656,20.137c-9.127,26.544-13.797,53.938-15.232,81.941
		c-0.192,3.75-0.308,7.491-0.315,11.229c0.321-3.245,0.722-6.486,1.179-9.729c3.919-27.766,11.006-54.635,22.457-80.262
		c3.195-7.151,7.209-13.916,13.4-19.021c0.599-0.494,1.179-0.903,1.744-1.253c-0.044-0.124-0.085-0.24-0.119-0.339
		C57.367,58.44,53.125,57.354,48.12,62.292z"/>
	<path fill="#27FFFF" d="M33.7,200.465c0.654-0.766,1.271-1.555,1.868-2.356c-1.167,1.498-2.414,2.938-3.76,4.3
		C32.414,201.876,33.042,201.236,33.7,200.465z"/>
	<path fill="#27FFFF" d="M10.932,208.128c-5.276-8.103-6.59-20.219-6.623-30.754c-0.003-0.868,0.011-1.734,0.016-2.602
		c-0.081,0.849-0.17,1.695-0.243,2.546C3.178,187.814,3.409,200,7.943,208.539c4.063,7.064,11.076,10.961,18.747,9.574
		c3.913-0.708,7.102-2.688,9.922-5.215c-1.809,1.372-3.828,2.459-6.157,3.099C22.938,218.061,15.606,214.803,10.932,208.128z"/>
	<path fill="#27FFFF" d="M216.181,8.199c0.798,1.742,0.868,3.978,0.228,7.075c-2.992,14.437-6.756,26.677-10.366,40.96
		c-7.564,31.035-11.079,57.413-12.563,76.223c2.801-18.331,7.872-42.907,16.695-71.292c4.494-14.03,9.012-26.012,12.896-40.235
		C225.034,13.739,222.81,11.036,216.181,8.199z"/>
	<path fill="#27FFFF" d="M179.542,156.898c0.203-8.457,0.774-16.874,1.567-25.266c-1.551,9.393-2.829,18.833-3.653,28.352
		c-0.197,3.258,1.274,5.277,4.437,6.244c2.78,0.851,7.948,1.108,8.719,0.976c-0.175-0.149-0.28-1.457-0.249-3.8
		c-1.906-0.015-4.354-0.155-6.005-0.549C181.145,162.085,179.549,160.162,179.542,156.898z"/>
	<path fill="#27FFFF" d="M122.126,177.652c-0.755-1.41-1.286-2.943-2.125-4.891c-1.223,1.697-2.225,3.435-3.219,5.121
		c0.27-0.319,0.534-0.641,0.819-0.955c0.615,2.029,0.971,3.611,1.563,5.098c1.824,4.564,6.762,6.213,10.626,3.627
		c0.885-0.592,1.798-1.184,1.798-1.983c0-0.166-1.008-1.199-1.479-1.854c-0.049-0.067-0.09-0.138-0.138-0.206
		C126.999,182.239,123.824,180.816,122.126,177.652z"/>
	<path fill="#27FFFF" d="M110.811,124.44c-9.119,9.795-12.983,19.723-14.032,31.441c2.487-10.773,7.438-19.713,17.101-28
		c2.036-1.746,5.121-3.446,5.144-3.932c-0.093-1.247-1.042-3.186-3.762-4.685c0.099,0.243,0.179,0.479,0.219,0.692
		C115.514,120.442,112.638,122.477,110.811,124.44z"/>
	<path fill="#27FFFF" d="M88.253,183.438c-2.648-3.152-4.895-9.992-5.282-13.977c-0.576-5.934-0.786-11.091-0.465-15.862
		c-0.865,4.729-1.24,9.904-1.333,15.902c-0.062,4.001,1.406,11.05,3.684,14.479c5.473,8.234,14.852,9.787,22.951,4.078
		c0.902-0.636,1.702-1.354,2.454-2.117C103.063,191.415,94.26,190.587,88.253,183.438z"/>
	<path fill="#27FFFF" d="M126.881,155.702c0.563-4.346,1.278-8.58,1.473-12.959c0.089-2.014-0.281-3.696-1.48-4.815
		C127.239,143.851,126.669,149.625,126.881,155.702z"/>
	<path fill="#27FFFF" d="M108.827,171.725c0.714-1.16,1.353-2.342,1.937-3.539c-1.108,2.109-2.389,4.148-3.881,6.101
		C107.624,173.559,108.253,172.657,108.827,171.725z"/>
	<path fill="#27FFFF" d="M169.188,75.362c-0.873,2.011-3.042,2.069-4.794,2.746c-0.406,1.444-0.07,2.498,1.73,2.64
		c1.78-0.751,4.08-0.733,4.983-2.815c1.047-2.408,2.058-4.882,2.621-7.43c0.34-1.533,2.217-3.968-0.197-4.734
		c-0.282-0.089-0.573-0.154-0.87-0.194c-0.246,0.813-0.701,1.675-0.853,2.358C171.244,70.48,170.234,72.954,169.188,75.362z"/>
	<path fill="#27FFFF" d="M153.975,80.572c-0.921,2.68-3.286,3.059-5.549,2.537c-0.178,1.099,0.096,2.119,1.741,2.533
		c2.317,0.584,4.784,0.25,5.729-2.501c0.967-2.815,1.644-5.731,2.446-8.603c0.12-2.325-0.512-3.168-1.907-3.147
		c0.002,0.182-0.003,0.374-0.014,0.578C155.619,74.841,154.943,77.757,153.975,80.572z"/>
	<path fill="#27FFFF" d="M159.814,150.02c11.246-8.162,14.912-19.834,15.295-33.012c0.228-11.334-4.275-16.954-13.72-17.158
		c3.842,2.317,6.036,6.95,6.624,13.992c0.981,13.145-1.461,25.133-11.805,34.413c-4.206,3.433-10.916,5.072-11.051,5.285
		c-0.135,0.212,0.307,3.095,0.545,4.317c1.069,3.237,2.844,5.054,5.046,5.34c-1.092-0.999-1.908-2.579-2.375-4.711
		c-0.11-1.24-0.253-4.154-0.097-4.353S155.277,152.999,159.814,150.02z"/>
	<path fill="#27FFFF" d="M158.174,114.75c0.406-0.695,0.906-1.42,1.486-2.067c-0.203-1.908-0.831-3.664-2.822-3.992
		c-2.839-0.467-4.837,2.299-5.902,4.653c-4.418,9.749-6.947,20.242-6.295,31.971c1.639-0.344,2.978-0.966,4.128-1.754
		C149.667,132.808,153.134,123.372,158.174,114.75z"/>
	<path fill="#27FFFF" d="M152.652,174.691c-2.961,0.321-5.617,0.117-8-0.578c2.523,1.236,5.48,1.85,8.896,1.834
		c9.021-0.04,17.653-8.887,16.651-16.447c-0.201-1.521-0.506-2.813-1.725-3.771c-0.396-0.313-1.047-0.707-1.536-0.902
		c0.249,0.542,0.424,1.141,0.579,1.788C169.294,164.03,161.619,173.721,152.652,174.691z"/>
	<path fill="#FF2727" d="M36.612,212.898c2.757-2.091,5.02-4.85,7.11-7.741c0.438-0.605,0.856-1.223,1.275-1.839
		c-1.314,1.776-2.679,3.508-4.129,5.178C39.521,210.049,38.118,211.55,36.612,212.898z"/>
	<path fill="#FF2727" d="M72.858,235.195c-0.683-17.938-0.465-35.871,0.326-53.803c-0.203,1.354-0.41,2.706-0.595,4.063
		c-2.514,18.449-4.421,36.955-5.37,55.549c-0.055,1.078-0.092,2.059-0.114,2.948c0.001,0,0.002,0,0.003,0
		c3.063-0.133,6.791,0.011,6.386-1.605C73.202,241.182,72.989,238.633,72.858,235.195z"/>
	<path fill="#FF2727" d="M46.751,59.598c6.188-5.407,13.124-7.667,19.429-6.472c-1.605-1.389-3.459-2.579-5.581-3.528
		c-7.861-3.516-16.916-0.94-24.258,6.728c-8.846,9.24-13.971,20.611-18.006,32.469c-9.485,27.876-13.854,56.648-14.01,85.978
		c2.761-29.213,9.671-57.5,21.604-84.435C31.003,78.885,37.117,68.015,46.751,59.598z"/>
	<path fill="#FF2727" d="M69.125,70.299c-1.441-5.983-4.87-7.786-9.428-4.964c1.181,3.289,5.937,15.233-0.758,35.058
		c-1.867,5.529-1.974,5.981,2.072,6.341c1.405,0.125,2.669,0.125,3.806-0.033c0.161-0.373,0.333-0.765,0.524-1.2
		C74.091,85.625,69.801,73.104,69.125,70.299z"/>
	<path fill="#FF2727" d="M67.018,133.223c1.575-4.546,4.494-5.824,9.843-4.447c0.496,0.128,0.948,0.28,1.37,0.451
		c0.114-3.689-1.674-6.003-5.749-6.675c-5.451-0.897-8.244,0.637-9.409,5.304c-4.679,18.738-11.403,36.777-18.943,54.509
		c-2.338,5.499-4.971,10.923-8.562,15.744c2.979-3.823,5.455-8.016,7.735-12.279C52.39,168.839,60.691,151.47,67.018,133.223z"/>
	<path fill="#FF2727" d="M20.153,193.197c0.051,2.348,0.274,4.625,0.853,6.904c1.776,7.002,5.05,7.973,10.299,2.83
		c0.173-0.17,0.333-0.351,0.503-0.523c-3.782,3.33-6.556,2.029-8.618-3.846c-0.778-2.22-1.203-4.469-1.463-6.802
		c-0.6-5.387-0.821-10.77-0.81-16.161C20.338,181.443,20.024,187.299,20.153,193.197z"/>
	<path fill="#282828" d="M72.589,185.456c0.185-1.357,0.392-2.71,0.595-4.063c0.029-0.668,0.053-1.336,0.084-2.004
		c0.762-16.438,2.873-32.729,4.881-49.037c0.048-0.39,0.071-0.762,0.082-1.125c-0.422-0.171-0.875-0.323-1.37-0.451
		c-5.349-1.377-8.268-0.099-9.843,4.447c-6.327,18.247-14.628,35.616-23.715,52.606c-2.281,4.264-4.756,8.456-7.735,12.279
		c-0.597,0.802-1.214,1.591-1.868,2.356c-0.658,0.771-1.287,1.411-1.892,1.943c-0.17,0.173-0.33,0.354-0.503,0.523
		c-5.249,5.143-8.523,4.172-10.299-2.83c-0.579-2.279-0.802-4.557-0.853-6.904c-0.128-5.898,0.185-11.754,0.764-17.598
		c0.007-3.738,0.123-7.479,0.315-11.229c1.435-28.004,6.105-55.397,15.232-81.941c2.547-7.407,5.944-14.502,11.656-20.137
		c5.005-4.938,9.247-3.852,11.458,2.703c0.034,0.1,0.075,0.215,0.119,0.339c4.558-2.822,7.986-1.019,9.428,4.964
		c0.676,2.805,4.966,15.326-3.784,35.201c-0.191,0.435-0.363,0.827-0.524,1.2c2.853-0.395,4.866-1.811,6.041-4.944
		c4.322-11.527,4.622-23.459,2.531-35.382c-0.936-5.335-3.325-9.888-7.209-13.248c-6.306-1.196-13.241,1.065-19.429,6.472
		c-9.634,8.417-15.748,19.287-20.822,30.74C13.997,117.272,7.086,145.56,4.325,174.772c-0.005,0.867-0.019,1.733-0.016,2.602
		c0.033,10.535,1.347,22.651,6.623,30.754c4.674,6.675,12.006,9.933,19.523,7.869c2.33-0.64,4.349-1.727,6.157-3.099
		c1.505-1.349,2.908-2.85,4.256-4.402c1.45-1.67,2.815-3.401,4.129-5.178c4.164-6.124,7.475-12.782,10.901-19.818
		c1.741-4.869,1.228,3.085,1.176,4.298c-0.678,15.618-0.846,31.224,0.069,46.845c0.396,6.753,3.083,9.608,9.961,9.311
		c0.022-0.89,0.059-1.87,0.114-2.948C68.168,222.411,70.075,203.905,72.589,185.456z"/>
	<path fill="#FF2727" d="M110.263,185.941c0.423-0.322,0.842-0.656,1.253-1.021c2.243-1.991,3.745-4.453,5.266-7.037
		C114.441,180.657,112.619,183.553,110.263,185.941z"/>
	<path fill="#FF2727" d="M114.527,118.876c0.267,0.124,0.496,0.257,0.734,0.389c-0.522-1.279-1.91-2.875-4.817-3.846
		c-4.084-1.363-11.944,1.841-16.405,8.244c-7.567,10.858-10.829,19.469-11.534,29.936c1.881-10.28,6.085-18.453,14.796-28.369
		C102.452,119.367,110.621,117.063,114.527,118.876z"/>
	<path fill="#FF2727" d="M118.607,140.738c0.828-2.73,2.545-4.789,5.865-4.023c1.043,0.24,1.813,0.664,2.4,1.213
		c-0.007-0.113-0.008-0.227-0.016-0.34c-0.203-2.996-1.299-5.186-4.53-5.556c-3.386-0.39-4.861,1.849-5.378,4.655
		c-0.51,2.761-0.58,5.611-0.78,8.427c-0.57,8.031-1.883,15.863-5.405,23.071c3.125-5.948,4.882-12.453,6.125-19.16
		C117.402,146.25,117.791,143.425,118.607,140.738z"/>
	<path fill="#FF2727" d="M132.979,176.218c-4.971-5.495-5.832-12.489-6.051-19.218c-0.023-0.436-0.032-0.865-0.047-1.298
		c-0.27,2.078-0.508,4.18-0.632,6.339c-0.53,6.635-0.458,13.597,3.723,19.567c1.095-0.231,2.163-0.734,3.119-1.542
		c0.813-0.688,1.653-1.379,1.563-2.172C134.637,177.729,133.52,176.816,132.979,176.218z"/>
	<path fill="#FF2727" d="M99.409,177.966c3.252,1.002,5.412-1.026,7.205-3.319c0.093-0.119,0.178-0.24,0.269-0.36
		c-1.227,1.207-2.758,1.938-4.844,1.544c-3.547-0.67-5.428-6.164-5.518-8.902c-0.128-3.876-0.056-7.538,0.258-11.047
		c-0.911,3.943-1.501,8.125-1.857,12.621C94.705,171.232,95.959,176.902,99.409,177.966z"/>
	<path fill="#282828" d="M126.249,162.041c0.124-2.159,0.362-4.261,0.632-6.339c-0.212-6.077,0.358-11.852-0.008-17.774
		c-0.587-0.549-1.357-0.973-2.4-1.213c-3.32-0.766-5.037,1.293-5.865,4.023c-0.816,2.687-1.205,5.512-1.719,8.287
		c-1.242,6.707-3,13.212-6.125,19.16c-0.584,1.197-1.223,2.379-1.937,3.539c-0.574,0.933-1.204,1.834-1.944,2.562
		c-0.091,0.12-0.176,0.241-0.269,0.36c-1.793,2.293-3.953,4.321-7.205,3.319c-3.45-1.063-4.704-6.733-4.487-9.464
		c0.356-4.496,0.947-8.678,1.857-12.621c1.049-11.718,4.913-21.646,14.032-31.441c1.827-1.963,4.703-3.998,4.669-4.483
		c-0.04-0.213-0.12-0.449-0.219-0.692c-0.238-0.131-0.468-0.265-0.734-0.389c-3.906-1.813-12.075,0.491-17.225,6.354
		c-8.71,9.916-12.915,18.088-14.796,28.369c-0.321,4.771-0.111,9.929,0.465,15.862c0.387,3.984,2.634,10.824,5.282,13.977
		c6.007,7.149,14.81,7.978,22.01,2.504c2.356-2.389,4.178-5.284,6.519-8.059c0.994-1.687,1.996-3.424,3.219-5.121
		c0.839,1.947,1.37,3.48,2.125,4.891c1.698,3.164,4.873,4.587,7.846,3.956C125.791,175.638,125.719,168.676,126.249,162.041z"/>
	<path fill="#FF2727" d="M152.223,140.136c-0.967,1.289-2.072,2.479-3.454,3.425c-0.064,0.772-0.118,1.551-0.155,2.338
		c3.664-0.379,6.068-2.2,8.076-4.367c6.195-6.691,9.174-14.845,10.051-23.794c0.254-2.598,0.68-6.216-2.215-7.006
		c-1.911-0.521-3.584,0.523-4.865,1.952c0.099,0.929,0.099,1.894,0.104,2.749C159.816,124.423,157.695,132.841,152.223,140.136z"/>
	<path fill="#FF2727" d="M134.34,157.5c-3.055-16.874,0.471-32.937,10.251-47.368c3.632-5.359,8.287-10.121,15.646-10.296
		c0.397-0.009,0.772,0.006,1.153,0.014c-2.569-1.55-5.868-2.074-9.941-1.553c-7.302,0.934-11.439,6.15-14.5,11.856
		c-8.239,15.363-10.087,31.705-5.306,48.173c2.543,8.761,6.825,13.983,13.01,15.787C139.265,171.475,135.873,165.969,134.34,157.5z"
		/>
	<path fill="#FF2727" d="M155.889,164.16c3.868-1.152,5.545-2.791,8.295-5.441c1.17-1.128,2.01-3.427,2.114-3.906
		c0.036-0.163,0.3-0.122,0.641,0.014c-0.326-0.708-0.783-1.317-1.526-1.787c-0.725-0.457-2.215-1.09-2.26-0.686
		c-0.055,0.487-0.652,2.86-1.7,4.104c-2.461,2.92-3.96,4.723-7.688,6.27c-1.069,0.442-2.08,0.592-3.015,0.471
		C152.087,164.421,153.841,164.77,155.889,164.16z"/>
	<path fill="#282828" d="M145.703,157.857c-0.238-1.223-0.68-4.105-0.545-4.317c0.135-0.213,6.845-1.853,11.051-5.285
		c10.344-9.28,12.786-21.268,11.805-34.413c-0.588-7.042-2.782-11.674-6.624-13.992c-0.381-0.008-0.756-0.023-1.153-0.014
		c-7.358,0.175-12.014,4.937-15.646,10.296c-9.78,14.431-13.306,30.494-10.251,47.368c1.533,8.469,4.925,13.975,10.313,16.613
		c2.383,0.695,5.039,0.899,8,0.578c8.967-0.971,16.642-10.661,14.865-18.077c-0.155-0.647-0.33-1.246-0.579-1.788
		c-0.341-0.136-0.604-0.177-0.641-0.014c-0.104,0.479-0.944,2.778-2.114,3.906c-2.75,2.65-4.427,4.289-8.295,5.441
		c-2.048,0.609-3.802,0.261-5.14-0.963C148.547,162.911,146.772,161.095,145.703,157.857z M150.936,113.344
		c1.065-2.354,3.063-5.12,5.902-4.653c1.991,0.328,2.619,2.083,2.822,3.992c1.281-1.429,2.954-2.473,4.865-1.952
		c2.895,0.79,2.469,4.408,2.215,7.006c-0.877,8.949-3.855,17.103-10.051,23.794c-2.008,2.167-4.412,3.988-8.076,4.367
		c0.037-0.787,0.091-1.565,0.155-2.338c-1.15,0.788-2.489,1.41-4.128,1.754C143.988,133.586,146.518,123.093,150.936,113.344z"/>
	<path fill="#FF2727" d="M208.652,13.607c1.346-5.325,0-8.545,7.049-5.615c0.167,0.069,0.318,0.138,0.479,0.207
		c-1.13-2.464-3.729-3.932-7.934-5.38c-7.218-2.485-5.675,0.644-6.687,6.043c-5.648,30.153-11.744,58.234-16.197,88.583
		c-1.666,11.365-3.173,22.752-4.254,34.188c1.693-10.255,3.712-20.453,5.858-30.624C193.305,70.997,201.137,43.349,208.652,13.607z"
		/>
	<path fill="#FF2727" d="M193.121,163.285c-0.565-0.423-1.15-11.722,0.357-30.828c-2.27,14.858-3.047,25.607-3.116,30.947
		C191.72,163.414,192.805,163.36,193.121,163.285z"/>
	<path fill="#282828" d="M216.408,15.274c0.641-3.097,0.57-5.333-0.228-7.075c-0.161-0.069-0.313-0.138-0.479-0.207
		c-7.049-2.93-5.703,0.29-7.049,5.615c-7.516,29.742-15.348,57.39-21.685,87.402c-2.146,10.171-4.165,20.369-5.858,30.624
		c-0.793,8.392-1.364,16.809-1.567,25.266c0.007,3.264,1.603,5.187,4.815,5.957c1.651,0.394,4.099,0.534,6.005,0.549
		c0.069-5.34,0.847-16.089,3.116-30.947c1.484-18.81,4.999-45.188,12.563-76.223C209.652,41.951,213.416,29.711,216.408,15.274z"/>
	<path fill="#FF2727" d="M164.203,78.177c0.062-0.026,0.128-0.045,0.19-0.069c0.011-0.038,0.016-0.073,0.027-0.112
		c0.955-3.149,1.793-6.348,2.981-9.408c0.928-2.385,3.21-3.293,5.259-3.013c0.307-1.013,0.289-1.951-1.05-2.375
		c-2.231-0.707-5.068,0.089-6.129,2.819c-1.189,3.06-2.027,6.259-2.982,9.408C162.043,76.929,162.355,78.031,164.203,78.177z"/>
	<path fill="#282828" d="M167.402,68.587c-1.188,3.06-2.026,6.259-2.981,9.408c-0.012,0.039-0.017,0.074-0.027,0.112
		c1.752-0.676,3.921-0.734,4.794-2.746c1.047-2.408,2.057-4.882,2.621-7.43c0.151-0.683,0.606-1.545,0.853-2.358
		C170.612,65.294,168.33,66.202,167.402,68.587z"/>
	<path fill="#FF2727" d="M148.246,83.073c0.06,0.015,0.119,0.022,0.18,0.036c0.107-0.672,0.383-1.373,0.618-1.983
		c1.285-3.347,0.479-7.822,5.319-9.326c0.819-0.254,1.507-0.4,2.072-0.409c-0.015-2.729-1.331-2.984-3.992-2.16
		c-4.84,1.504-4.035,5.979-5.32,9.326C146.504,80.166,145.594,82.406,148.246,83.073z"/>
	<path fill="#282828" d="M149.044,81.126c-0.235,0.61-0.511,1.311-0.618,1.983c2.263,0.522,4.628,0.144,5.549-2.537
		c0.969-2.815,1.645-5.731,2.447-8.604c0.011-0.204,0.016-0.396,0.014-0.578c-0.565,0.009-1.253,0.155-2.072,0.409
		C149.523,73.304,150.329,77.779,149.044,81.126z"/>
</g>
</svg>
